<?xml version="1.0" encoding="utf-8"?>
<!-- Generator: Adobe Illustrator 19.0.0, SVG Export Plug-In . SVG Version: 6.00 Build 0)  -->
<svg version="1.1" id="Layer_1" xmlns="http://www.w3.org/2000/svg" xmlns:xlink="http://www.w3.org/1999/xlink" x="0px" y="0px"
	 viewBox="-47 170.9 500 500" style="enable-background:new -47 170.9 500 500;" xml:space="preserve">
<style type="text/css">
	.st0{fill:#E84524;}
	.st1{clip-path:url(#SVGID_2_);fill:none;stroke:#FFFFFF;stroke-width:2;stroke-linecap:square;stroke-miterlimit:10;}
	.st2{clip-path:url(#SVGID_4_);fill:none;stroke:#FFFFFF;stroke-width:2;stroke-miterlimit:10;}
	.st3{clip-path:url(#SVGID_6_);fill:none;stroke:#4A4A4A;stroke-miterlimit:10;}
	.st4{fill:#262625;}
</style>
<circle class="st0" cx="203" cy="420.9" r="250"/>
<g>
	<g>
		<g>
			<g>
				<defs>
					<rect id="SVGID_1_" x="-509" y="-276.1" width="1440" height="1888"/>
				</defs>
				<clipPath id="SVGID_2_">
					<use xlink:href="#SVGID_1_"  style="overflow:visible;"/>
				</clipPath>
				<line class="st1" x1="769.8" y1="-171.1" x2="772.8" y2="-173.9"/>
			</g>
		</g>
	</g>
	<g>
		<g>
			<g>
				<defs>
					<rect id="SVGID_3_" x="-509" y="-276.1" width="1440" height="1888"/>
				</defs>
				<clipPath id="SVGID_4_">
					<use xlink:href="#SVGID_3_"  style="overflow:visible;"/>
				</clipPath>
				<ellipse class="st2" cx="776.5" cy="-177.2" rx="4.6" ry="4.4"/>
			</g>
		</g>
	</g>
	<g>
		<g>
			<g>
				<defs>
					<rect id="SVGID_5_" x="-509" y="-276.1" width="1440" height="1888"/>
				</defs>
				<clipPath id="SVGID_6_">
					<use xlink:href="#SVGID_5_"  style="overflow:visible;"/>
				</clipPath>
				<circle class="st3" cx="775.2" cy="-175.9" r="15.1"/>
			</g>
		</g>
	</g>
</g>
<path class="st4" d="M338.8,335.1c-31.1-29.4-83.4-29.4-114.5,0L203,354.7l-21.3-19.6c-31.1-29.4-83.4-29.4-114.5,0
	c-36,32.7-36,85.1,0,117.8L203,577.2l135.8-124.3C374.8,421.8,374.8,367.8,338.8,335.1z"/>
</svg>
