<?xml version="1.0" encoding="utf-8"?>
<!-- Generator: Adobe Illustrator 19.0.0, SVG Export Plug-In . SVG Version: 6.00 Build 0)  -->
<svg version="1.1" id="Layer_1" xmlns="http://www.w3.org/2000/svg" xmlns:xlink="http://www.w3.org/1999/xlink" x="0px" y="0px"
	 viewBox="-281 404.9 32 32" style="enable-background:new -281 404.9 32 32;" xml:space="preserve">
<style type="text/css">
	.st0{fill:#FBE407;}
</style>
<path class="st0" d="M-251,412.9h-8v-2c0-1.1-0.9-2-2-2h-8c-1.1,0-2,0.9-2,2v2h-8c-1.1,0-2,0.9-2,2v18c0,1.1,0.9,2,2,2h28
	c1.1,0,2-0.9,2-2v-18C-249,413.8-249.9,412.9-251,412.9z M-269,410.9C-269,410.9-269,410.9-269,410.9l8,0c0,0,0,0,0,0v2h-8
	L-269,410.9L-269,410.9z M-251,420.9h-4v3c0,0.5-0.4,1-1,1h-2c-0.5,0-1-0.5-1-1v-3h-12v3c0,0.5-0.5,1-1,1h-2c-0.5,0-1-0.5-1-1v-3h-4
	v-2h28V420.9z"/>
</svg>
