<?xml version="1.0" encoding="utf-8"?>
<!-- Generator: Adobe Illustrator 19.0.0, SVG Export Plug-In . SVG Version: 6.00 Build 0)  -->
<svg version="1.1" id="Layer_1" xmlns="http://www.w3.org/2000/svg" xmlns:xlink="http://www.w3.org/1999/xlink" x="0px" y="0px"
	 viewBox="-285 412.9 24 16" style="enable-background:new -285 412.9 24 16;" xml:space="preserve">
<style type="text/css">
	.st0{fill:#373A3C;}
	.st1{fill:#FFFFFF;}
</style>
<title>Group 4</title>
<desc>Created with Sketch.</desc>
<g id="Welcome">
	<g id="Video-Player" transform="translate(-234.000000, -284.000000)">
		<g id="Group-4" transform="translate(234.000000, 284.000000)">
			<path id="path18" class="st0" d="M-261.9,420.8c0-3.7-0.2-5.4-1.1-6.5c-0.2-0.2-0.5-0.4-0.7-0.6c-0.9-0.6-4.9-0.9-9.7-0.9
				s-9,0.2-9.9,0.9c-0.3,0.2-0.6,0.3-0.7,0.6c-0.9,1.1-1,2.8-1,6.5c0.1,3.7,0.2,5.4,1,6.5c0.2,0.3,0.5,0.4,0.7,0.6
				c0.8,0.7,5.1,0.9,9.9,0.9c4.7,0,8.8-0.2,9.7-0.9c0.2-0.2,0.5-0.3,0.7-0.6C-262.1,426.2-261.9,424.6-261.9,420.8L-261.9,420.8z"/>
			<path id="path20" class="st1" d="M-278.4,414.8c-2.5,0-4.5,2.3-4.5,6c0,3.7,1.8,6,4.8,6c2.4,0,4.1-1.8,4.3-4.7h-2.9
				c-0.1,1.1-0.6,1.9-1.5,1.9c-1.5,0-1.8-1.5-1.8-3.1c0-2.2,0.6-3.3,1.7-3.3c0.9,0,1.5,0.7,1.6,1.9h2.8
				C-274.1,416.6-275.6,414.8-278.4,414.8z"/>
			<path id="path22" class="st1" d="M-268.6,414.8c-2.5,0-4.5,2.3-4.5,6c0,3.7,1.8,6,4.8,6c2.4,0,4.1-1.8,4.3-4.7h-2.9
				c-0.1,1.1-0.6,1.9-1.5,1.9c-1.5,0-1.8-1.5-1.8-3.1c0-2.2,0.6-3.3,1.7-3.3c0.9,0,1.5,0.7,1.6,1.9h2.8
				C-264.2,416.6-265.8,414.8-268.6,414.8z"/>
		</g>
	</g>
</g>
</svg>
