<?xml version="1.0" encoding="utf-8"?>
<!-- Generator: Adobe Illustrator 19.0.0, SVG Export Plug-In . SVG Version: 6.00 Build 0)  -->
<svg version="1.1" id="Layer_1" xmlns="http://www.w3.org/2000/svg" xmlns:xlink="http://www.w3.org/1999/xlink" x="0px" y="0px"
	 viewBox="-285 412.9 24 16" style="enable-background:new -285 412.9 24 16;" xml:space="preserve">
<style type="text/css">
	.st0{fill:#FFFFFF;}
</style>
<title>Group 4</title>
<desc>Created with Sketch.</desc>
<g id="Welcome">
	<g id="Video-Player" transform="translate(-234.000000, -284.000000)">
		<path class="st0" d="M-28.5,698.4c-0.2-0.2-0.5-0.4-0.7-0.6c-0.9-0.6-4.9-0.9-9.7-0.9c-4.8,0-9,0.2-9.9,0.9
			c-0.3,0.2-0.6,0.3-0.7,0.6c-0.9,1.1-1,2.8-1,6.5c0.1,3.7,0.2,5.4,1,6.5c0.2,0.3,0.5,0.4,0.7,0.6c0.8,0.7,5.1,0.9,9.9,0.9
			c4.7,0,8.8-0.2,9.7-0.9c0.2-0.2,0.5-0.3,0.7-0.6c0.9-1.1,1.1-2.7,1.1-6.5C-27.4,701.2-27.6,699.5-28.5,698.4z M-43.6,710.9
			c-3,0-4.8-2.3-4.8-6s2-6,4.5-6c2.8,0,4.3,1.8,4.5,4.7h-2.8c-0.1-1.2-0.7-1.9-1.6-1.9c-1.1,0-1.7,1.1-1.7,3.3
			c0,1.6,0.3,3.1,1.8,3.1c0.9,0,1.4-0.8,1.5-1.9h2.9C-39.5,709.1-41.2,710.9-43.6,710.9z M-33.8,710.9c-3,0-4.8-2.3-4.8-6s2-6,4.5-6
			c2.8,0,4.4,1.8,4.5,4.7h-2.8c-0.1-1.2-0.7-1.9-1.6-1.9c-1.1,0-1.7,1.1-1.7,3.3c0,1.6,0.3,3.1,1.8,3.1c0.9,0,1.4-0.8,1.5-1.9h2.9
			C-29.8,709.1-31.5,710.9-33.8,710.9z"/>
	</g>
</g>
</svg>
