<?xml version="1.0" encoding="utf-8"?>
<!-- Generator: Adobe Illustrator 19.0.0, SVG Export Plug-In . SVG Version: 6.00 Build 0)  -->
<svg version="1.1" id="Layer_1" xmlns="http://www.w3.org/2000/svg" xmlns:xlink="http://www.w3.org/1999/xlink" x="0px" y="0px"
	 viewBox="-281 404.9 32 32" style="enable-background:new -281 404.9 32 32;" xml:space="preserve">
<style type="text/css">
	.st0{fill:#373A3C;}
</style>
<path class="st0" d="M-260.4,428.3l-6.6-6.6v-8.8h4v7.2l5.4,5.4L-260.4,428.3z M-265,404.9c-8.8,0-16,7.2-16,16c0,8.8,7.2,16,16,16
	s16-7.2,16-16C-249,412.1-256.2,404.9-265,404.9z M-265,432.9c-6.6,0-12-5.4-12-12c0-6.6,5.4-12,12-12s12,5.4,12,12
	C-253,427.5-258.4,432.9-265,432.9z"/>
</svg>
