<?xml version="1.0" encoding="utf-8"?>
<!-- Generator: Adobe Illustrator 16.0.0, SVG Export Plug-In . SVG Version: 6.00 Build 0)  -->
<!DOCTYPE svg PUBLIC "-//W3C//DTD SVG 1.1//EN" "http://www.w3.org/Graphics/SVG/1.1/DTD/svg11.dtd">
<svg version="1.1" id="Layer_1" xmlns="http://www.w3.org/2000/svg" xmlns:xlink="http://www.w3.org/1999/xlink" x="0px" y="0px"
	 width="500px" height="154.627px" viewBox="0 0 500 154.627" enable-background="new 0 0 500 154.627" xml:space="preserve">
<g>
	<path fill="#14A9E5" d="M107.993,44.516c-1.846-2.964-4.15-5.563-6.916-7.804c-2.766-2.239-5.896-3.983-9.384-5.237
		c-3.492-1.25-7.148-1.876-10.966-1.876c-6.983,0-12.911,1.352-17.783,4.05c-4.874,2.701-8.825,6.322-11.854,10.867
		c-3.031,4.544-5.235,9.714-6.619,15.51c-1.383,5.797-2.075,11.79-2.075,17.979c0,5.928,0.692,11.691,2.075,17.289
		c1.383,5.601,3.587,10.638,6.619,15.113c3.029,4.48,6.98,8.07,11.854,10.77c4.872,2.7,10.799,4.051,17.783,4.051
		c9.483,0,16.893-2.896,22.228-8.694c5.334-5.795,8.594-13.436,9.78-22.92h30.032c-0.791,8.826-2.833,16.794-6.125,23.907
		c-3.294,7.113-7.641,13.173-13.04,18.177c-5.403,5.008-11.724,8.827-18.967,11.459c-7.246,2.634-15.214,3.952-23.907,3.952
		c-10.802,0-20.518-1.876-29.143-5.63c-8.628-3.755-15.906-8.923-21.832-15.511c-5.928-6.584-10.472-14.323-13.633-23.215
		s-4.742-18.474-4.742-28.748c0-10.536,1.58-20.315,4.742-29.34c3.162-9.021,7.705-16.893,13.633-23.61
		c5.926-6.719,13.204-11.984,21.832-15.807c8.625-3.819,18.34-5.729,29.143-5.729c7.771,0,15.114,1.121,22.029,3.358
		c6.917,2.241,13.105,5.501,18.574,9.78c5.464,4.283,9.977,9.583,13.533,15.906c3.557,6.322,5.795,13.568,6.718,21.733h-30.032
		C111.021,50.74,109.835,47.479,107.993,44.516z"/>
	<path fill="#00A89D" d="M142.898,32.958V6.877h115.584v26.082H216.2v114.989h-31.02V32.958H142.898z"/>
	<path fill="#DB115B" d="M283.432,147.947L237.79,6.877h31.812l31.414,99.184h0.394L333.22,6.877h32.008l-46.826,141.07H283.432z"/>
	<path fill="#D8E100" d="M453.848,44.516c-1.847-2.964-4.147-5.563-6.914-7.804c-2.767-2.239-5.897-3.983-9.387-5.237
		c-3.49-1.25-7.147-1.876-10.965-1.876c-6.984,0-12.91,1.352-17.781,4.05c-4.875,2.701-8.827,6.322-11.855,10.867
		c-3.031,4.544-5.235,9.714-6.619,15.51c-1.383,5.797-2.073,11.79-2.073,17.979c0,5.928,0.69,11.691,2.073,17.289
		c1.384,5.601,3.588,10.638,6.619,15.113c3.028,4.48,6.98,8.07,11.855,10.77c4.871,2.7,10.797,4.051,17.781,4.051
		c9.484,0,16.895-2.896,22.228-8.694c5.334-5.795,8.595-13.436,9.78-22.92h30.032c-0.792,8.826-2.835,16.794-6.126,23.907
		c-3.294,7.113-7.641,13.173-13.04,18.177c-5.4,5.008-11.725,8.827-18.967,11.459c-7.246,2.634-15.214,3.952-23.907,3.952
		c-10.802,0-20.517-1.876-29.143-5.63c-8.627-3.755-15.905-8.923-21.834-15.511c-5.926-6.584-10.47-14.323-13.633-23.215
		c-3.16-8.892-4.741-18.474-4.741-28.748c0-10.536,1.581-20.315,4.741-29.34c3.163-9.021,7.707-16.893,13.633-23.61
		c5.929-6.719,13.207-11.984,21.834-15.807c8.626-3.819,18.341-5.729,29.143-5.729c7.77,0,15.114,1.121,22.028,3.358
		c6.917,2.241,13.105,5.501,18.573,9.78c5.464,4.283,9.979,9.583,13.534,15.906c3.557,6.322,5.795,13.568,6.719,21.733h-30.032
		C456.876,50.74,455.69,47.479,453.848,44.516z"/>
</g>
</svg>
