<?xml version="1.0" encoding="utf-8"?>
<!-- Generator: Adobe Illustrator 19.0.0, SVG Export Plug-In . SVG Version: 6.00 Build 0)  -->
<svg version="1.1" id="Layer_1" xmlns="http://www.w3.org/2000/svg" xmlns:xlink="http://www.w3.org/1999/xlink" x="0px" y="0px"
	 viewBox="-281 404.9 32 32" style="enable-background:new -281 404.9 32 32;" xml:space="preserve">
<style type="text/css">
	.st0{fill:#373A3C;}
</style>
<path class="st0" d="M-261,419.8h1.4l-1.6,7.1l-2.1-9.9h-3.3l-2.4,9.9l-1.8-9.9h-3.5l3.5,16h3.4l2.4-9.5l2.1,9.5h3.1l4.1-16h-5.3
	C-261,416.9-261,419.8-261,419.8z"/>
<path class="st0" d="M-252.3,412c-0.7-0.9-1.7-2.1-2.7-3.1c-1.1-1.1-2.2-2-3.1-2.7c-1.6-1.2-2.4-1.3-2.8-1.3h-15.5
	c-1.4,0-2.5,1.1-2.5,2.5v27c0,1.4,1.1,2.5,2.5,2.5h23c1.4,0,2.5-1.1,2.5-2.5v-19.5C-251,414.4-251.1,413.7-252.3,412
	C-252.3,412-252.3,412-252.3,412z M-256.5,410.3c1,1,1.7,1.8,2.3,2.5h-4.8v-4.8C-258.3,408.6-257.4,409.4-256.5,410.3L-256.5,410.3z
	 M-253,434.4c0,0.3-0.2,0.5-0.5,0.5h-23c-0.3,0-0.5-0.2-0.5-0.5v-27c0-0.3,0.2-0.5,0.5-0.5c0,0,15.5,0,15.5,0v7c0,0.6,0.4,1,1,1h7
	V434.4z"/>
</svg>
