<?xml version="1.0" encoding="utf-8"?>
<!-- Generator: Adobe Illustrator 19.0.0, SVG Export Plug-In . SVG Version: 6.00 Build 0)  -->
<svg version="1.1" id="Layer_1" xmlns="http://www.w3.org/2000/svg" xmlns:xlink="http://www.w3.org/1999/xlink" x="0px" y="0px"
	 viewBox="-281 404.9 32 32" style="enable-background:new -281 404.9 32 32;" xml:space="preserve">
<style type="text/css">
	.st0{fill:#373A3C;}
</style>
<path class="st0" d="M-254.7,423.3c-0.4-0.4-1.4-0.6-2.8-0.7c-1,0-2.1,0.1-3.4,0.2c-0.6-0.3-1.1-0.7-1.6-1.1
	c-1.2-1.1-2.2-2.7-2.8-4.4c0-0.2,0.1-0.3,0.1-0.4c0,0,0.7-3.8,0.5-5.1c0-0.2,0-0.2-0.1-0.4l-0.1-0.2c-0.2-0.4-0.5-0.9-1.1-0.9
	l-0.3,0c-0.6,0-1.1,0.3-1.3,0.8c-0.4,1.5,0,3.8,0.8,6.7l-0.2,0.5c-0.6,1.3-1.2,2.7-1.8,3.9l-0.1,0.2c-0.6,1.3-1.2,2.3-1.7,3.2
	l-0.5,0.3c0,0-1,0.5-1.2,0.6c-1.9,1.1-3.1,2.4-3.3,3.4c-0.1,0.3,0,0.7,0.3,0.9l0.5,0.3c0.2,0.1,0.5,0.2,0.7,0.2c1.3,0,2.9-1.6,5-5.3
	c2.4-0.8,5.2-1.5,7.6-1.8c1.9,1,4.1,1.8,5.6,1.8c0.3,0,0.5,0,0.7-0.1c0.3-0.1,0.5-0.2,0.7-0.4c0.3-0.4,0.3-1,0.3-1.6
	C-254.4,423.7-254.5,423.5-254.7,423.3L-254.7,423.3z M-274.4,430.3c0.2-0.7,1.2-2,2.6-3.1c0.1-0.1,0.3-0.3,0.5-0.5
	C-272.8,429.1-273.7,430-274.4,430.3z M-266,411.1c0.4,0,0.7,1.1,0.7,2.1c0,1-0.2,1.7-0.5,2.2c-0.2-0.8-0.4-2-0.4-2.8
	C-266.2,412.6-266.2,411.1-266,411.1L-266,411.1z M-268.5,424.8c0.3-0.5,0.6-1.1,0.9-1.7c0.8-1.4,1.2-2.6,1.6-3.5
	c0.7,1.3,1.6,2.4,2.7,3.3c0.1,0.1,0.3,0.2,0.4,0.3C-265.1,423.7-266.9,424.2-268.5,424.8L-268.5,424.8L-268.5,424.8z M-255.1,424.7
	c-0.1,0.1-0.5,0.1-0.7,0.1c-0.8,0-1.7-0.4-3.1-0.9c0.5,0,1-0.1,1.4-0.1c0.8,0,1,0,1.8,0.2C-255,424.2-255,424.6-255.1,424.7
	L-255.1,424.7L-255.1,424.7z"/>
<path class="st0" d="M-252.3,412c-0.7-0.9-1.7-2.1-2.7-3.1c-1.1-1.1-2.2-2-3.1-2.7c-1.6-1.2-2.4-1.3-2.8-1.3h-15.5
	c-1.4,0-2.5,1.1-2.5,2.5v27c0,1.4,1.1,2.5,2.5,2.5h23c1.4,0,2.5-1.1,2.5-2.5v-19.5C-251,414.4-251.1,413.7-252.3,412
	C-252.3,412-252.3,412-252.3,412z M-256.5,410.3c1,1,1.7,1.8,2.3,2.5h-4.8v-4.8C-258.3,408.6-257.4,409.4-256.5,410.3L-256.5,410.3z
	 M-253,434.4c0,0.3-0.2,0.5-0.5,0.5h-23c-0.3,0-0.5-0.2-0.5-0.5v-27c0-0.3,0.2-0.5,0.5-0.5c0,0,15.5,0,15.5,0v7c0,0.6,0.4,1,1,1h7
	V434.4z"/>
</svg>
