<?xml version="1.0" encoding="utf-8"?>
<!-- Generator: Adobe Illustrator 19.0.0, SVG Export Plug-In . SVG Version: 6.00 Build 0)  -->
<svg version="1.1" id="Layer_1" xmlns="http://www.w3.org/2000/svg" xmlns:xlink="http://www.w3.org/1999/xlink" x="0px" y="0px"
	 viewBox="-47 170.9 500 500" style="enable-background:new -47 170.9 500 500;" xml:space="preserve">
<style type="text/css">
	.st0{fill:#373A3C;}
</style>
<path class="st0" d="M247.9,185.5c-113.1,0-205.1,88.7-205.1,197.7c0,38.5,11.6,74.3,31.4,104.7L-47,603.6l50.2,52.5l121-115.7
	c34.4,25.2,77.2,40.3,123.7,40.3C361,580.8,453,492.2,453,383.2C453,274.2,361,185.5,247.9,185.5z M247.9,508.2
	c-73.1,0-132.5-56.1-132.5-125.1s59.4-125.1,132.5-125.1c73.1,0,132.5,56.1,132.5,125.1S321,508.2,247.9,508.2z"/>
</svg>
