<?xml version="1.0" encoding="utf-8"?>
<!-- Generator: Adobe Illustrator 16.0.0, SVG Export Plug-In . SVG Version: 6.00 Build 0)  -->
<!DOCTYPE svg PUBLIC "-//W3C//DTD SVG 1.1//EN" "http://www.w3.org/Graphics/SVG/1.1/DTD/svg11.dtd">
<svg version="1.1" id="Layer_1" xmlns="http://www.w3.org/2000/svg" xmlns:xlink="http://www.w3.org/1999/xlink" x="0px" y="0px"
	 width="500px" height="500px" viewBox="0 0 500 500" enable-background="new 0 0 500 500" xml:space="preserve">
<path fill="#FFFFFF" d="M294.888,14.618c-113.104,0-205.113,88.676-205.113,197.667c0,38.452,11.63,74.263,31.414,104.666L0,432.751
	l50.171,52.51l121.028-115.657c34.445,25.209,77.206,40.349,123.688,40.349C407.992,409.952,500,321.277,500,212.285
	C500,103.294,407.992,14.618,294.888,14.618z M294.888,337.339c-73.057,0-132.499-56.092-132.499-125.054
	S221.831,87.232,294.888,87.232c73.074,0,132.499,56.091,132.499,125.053S367.962,337.339,294.888,337.339z"/>
</svg>
