<?xml version="1.0" encoding="utf-8"?>
<!-- Generator: Adobe Illustrator 19.0.0, SVG Export Plug-In . SVG Version: 6.00 Build 0)  -->
<svg version="1.1" id="Layer_1" xmlns="http://www.w3.org/2000/svg" xmlns:xlink="http://www.w3.org/1999/xlink" x="0px" y="0px"
	 viewBox="-285 412.9 24 16" style="enable-background:new -285 412.9 24 16;" xml:space="preserve">
<style type="text/css">
	.st0{fill:#FFFFFF;}
</style>
<title>Group 4</title>
<desc>Created with Sketch.</desc>
<path class="st0" d="M-263.1,412.9h-19.7c-1.2,0-2.1,1-2.1,2.1v11.7c0,1.2,1,2.1,2.1,2.1h19.7c1.2,0,2.1-1,2.1-2.1V415
	C-261,413.8-262,412.9-263.1,412.9z M-282.1,419.4h13.8v2h-13.8V419.4z M-278.5,425.5h-3.5v-2h3.5V425.5z M-274,425.5h-3.5v-2h3.5
	V425.5z M-263.9,425.5h-9.1v-2h9.1V425.5z M-263.9,421.5h-3.3v-2h3.3V421.5z"/>
</svg>
