<?xml version="1.0" encoding="utf-8"?>
<!-- Generator: Adobe Illustrator 19.0.0, SVG Export Plug-In . SVG Version: 6.00 Build 0)  -->
<svg version="1.1" id="Layer_1" xmlns="http://www.w3.org/2000/svg" xmlns:xlink="http://www.w3.org/1999/xlink" x="0px" y="0px"
	 viewBox="123 249.7 841.9 343.1" style="enable-background:new 123 249.7 841.9 343.1;" xml:space="preserve">
<style type="text/css">
	.st0{fill:#D6DBDE;}
</style>
<g>
	<path class="st0" d="M464.5,318.6l-30.6,0l0-33.4l110.5,0l0,33.4l-30.6,0l0,90.9l-49.2,0L464.5,318.6z"/>
	<path class="st0" d="M549.3,285.2l73.5,0c26.7,0,42.4,8.1,42.4,31.5c0,14.3-6,25.1-24.6,29.6v0.3c12.1,1,18.6,6.4,21,15.8
		c2.8,10.7,2.4,28.2,8.1,47l-48.2,0c-2.9-9.3-4.5-25-6.2-35.6c-1-6.2-4.1-8.6-12.1-8.6l-5.7,0l0,44.2l-48.2,0L549.3,285.2z
		 M601.7,337c9.5,0,16.4-3.3,16.4-12.6c0-9.1-6.4-11-16-11h-4.5l0,23.6L601.7,337z"/>
	<path class="st0" d="M792.8,367.8c0,30-21.5,44.9-59,45c-37.5,0-59.1-15-59.1-44.9l0-82.6l49.2,0l0,80.6c0,9.8,4.7,13.6,9.8,13.6
		c5.2,0,9.8-3.8,9.8-13.6l0-80.6l49.2,0L792.8,367.8z"/>
	<path class="st0" d="M805.2,285.1l94.5,0l0,32.4l-47.4,0l0,13.3l43.7,0l0,32.4l-43.7,0l0,13.9l48.9,0l0,32.4l-96.1,0L805.2,285.1z"
		/>
	<path class="st0" d="M476.4,454.5l-30.6,0l0-33.4l110.5,0l0,33.4l-30.6,0l0,90.9l-49.2,0L476.4,454.5z"/>
	<path class="st0" d="M678.6,503.7c0,30-21.5,44.9-59,45c-37.5,0-59.1-15-59.1-44.9l0-82.6l49.2,0l0,80.6c0,9.8,4.7,13.6,9.8,13.6
		c5.2,0,9.8-3.8,9.8-13.6l0-80.6l49.2,0L678.6,503.7z"/>
	<path class="st0" d="M691,421l73.9,0c26.9,0,40,11.4,40,32.2c0,12.1-5,22.7-23.4,27v0.3c19.1,2.6,26.7,15.8,26.7,29.1
		c0,21.4-16.7,35.6-47.7,35.7l-69.4,0L691,421z M737.1,447.5l0,23.6l6.5,0c11.4,0,15-5.2,15-12.4c0-8.3-5.3-11.2-15.2-11.2
		L737.1,447.5z M737.1,518.8l6.9,0c12.1,0,16.9-4,16.9-13.1c0-7.6-5.9-11.2-17.4-11.2l-6.4,0L737.1,518.8z"/>
	<path class="st0" d="M817.2,421l94.5,0l0,32.4l-47.4,0l0,13.3l43.7,0l0,32.4l-43.7,0l0,13.9l48.9,0l0,32.4l-96.1,0L817.2,421z"/>
	<g>
		<path class="st0" d="M218.4,359.4c5.2-22.6,16.4-42.9,31.9-59.1l-29.9-21.2c-19.2,21.5-32.8,48.1-38.6,77.5
			C181.8,356.6,218.3,359.7,218.4,359.4z"/>
		<path class="st0" d="M342.6,288.9c-46.8,0-85.9,34.3-95.6,80.2l-88-5.3c-0.7,4.7-1.2,9.4-1.6,14.2l0,0c-0.1,1-0.1,1.9-0.2,2.9
			c0,0.3,0,0.5,0,0.8c-0.1,1.5-0.1,3-0.2,4.4c0,1.5-0.1,3-0.1,4.4c0,0.2,0,0.4,0,0.7c0,0.1,0,0.2,0,0.3c0,0.1,0,0.2,0,0.3
			c0,1.1,0,2.2,0,3.3c0,0.3,0,0.6,0,0.9c1.2,55.6,27.1,105.2,67.1,138.2c0,0,0,0,0,0c30.1,25,68.2,40.7,109.9,42.6
			c0,0,0.2-6.2,0.1-6.2c-40.1-1.5-76.8-16.5-105.8-40.5c0.6-0.6,1.2-1.2,1.9-1.8c25.3,20.8,56.5,34.7,90.7,38.9l0.4-3
			c-33.5-4.1-64.1-17.7-88.9-38c13-12.3,34-32.3,53.9-51.4c15.9,11.8,35.4,18.7,56.4,18.7c54.1,0,97.9-45.8,97.9-102.4
			C440.5,334.7,396.7,288.9,342.6,288.9z M342.6,441.1c-6.4,0-12.6-1.2-18.2-3.4c6.4-6.5,11-11.2,12.5-13.3c1.9,0.3,3.8,0.5,5.7,0.5
			c18.5,0,33.6-15,33.6-33.6c0-18.5-15-33.6-33.6-33.6c-11.9,0-22.3,6.1-28.2,15.4l-17.7-1.1c7.5-18,25.3-30.6,46-30.6
			c27.5,0,49.8,22.3,49.8,49.8C392.4,418.8,370.1,441.1,342.6,441.1z M318,391.3c0-13.6,11-24.6,24.6-24.6c13.6,0,24.6,11,24.6,24.6
			c0,13.6-11,24.6-24.6,24.6C329,415.9,318,404.9,318,391.3z"/>
		<path class="st0" d="M342.6,372.9c-10.1,0-18.3,8.2-18.3,18.3c0,10.1,8.2,18.3,18.3,18.3c10.1,0,18.3-8.2,18.3-18.3
			C360.9,381.1,352.7,372.9,342.6,372.9z M345.6,381.9c-1-0.3-2-0.5-3-0.5c-5.5,0-9.9,4.4-9.9,9.9c0,1,0.1,1.9,0.4,2.8l-4.1,1.2
			c-0.4-1.3-0.6-2.7-0.6-4.1c0-7.8,6.3-14.2,14.2-14.2c1.5,0,3,0.2,4.4,0.7L345.6,381.9z"/>
	</g>
</g>
</svg>
