<?xml version="1.0" encoding="utf-8"?>
<!-- Generator: Adobe Illustrator 16.0.0, SVG Export Plug-In . SVG Version: 6.00 Build 0)  -->
<!DOCTYPE svg PUBLIC "-//W3C//DTD SVG 1.1//EN" "http://www.w3.org/Graphics/SVG/1.1/DTD/svg11.dtd">
<svg version="1.1" id="Layer_1" xmlns="http://www.w3.org/2000/svg" xmlns:xlink="http://www.w3.org/1999/xlink" x="0px" y="0px"
	 width="841.89px" height="343.143px" viewBox="0 0 841.89 343.143" enable-background="new 0 0 841.89 343.143"
	 xml:space="preserve">
<g>
	<path fill="#FFFFFF" d="M341.461,68.894l-30.648,0.012l-0.011-33.406l110.541-0.037l0.011,33.406l-30.649,0.011l0.034,90.908
		l-49.247,0.019L341.461,68.894z"/>
	<path fill="#FFFFFF" d="M426.336,35.461l73.523-0.025c26.686-0.012,42.357,8.077,42.365,31.492
		c0.006,14.292-6.018,25.142-24.611,29.624v0.346c12.053,1.029,18.598,6.363,21.012,15.834c2.76,10.672,2.42,28.237,8.109,47
		l-48.211,0.017c-2.93-9.294-4.486-24.963-6.211-35.639c-1.035-6.198-4.135-8.605-12.057-8.603l-5.682,0.002l0.016,44.249
		l-48.209,0.017L426.336,35.461z M478.697,87.27c9.471-0.003,16.357-3.277,16.355-12.575c-0.006-9.125-6.377-11.018-16.02-11.014
		l-4.475,0l0.008,23.59L478.697,87.27z"/>
	<path fill="#FFFFFF" d="M669.83,118.026c0.01,29.957-21.506,44.943-59.043,44.959c-37.533,0.01-59.062-14.96-59.072-44.922
		l-0.029-82.646l49.242-0.017l0.031,80.581c0.002,9.814,4.65,13.602,9.816,13.599c5.166-0.001,9.812-3.791,9.811-13.604
		l-0.027-80.582l49.244-0.017L669.83,118.026z"/>
	<path fill="#FFFFFF" d="M682.197,35.374l94.529-0.034l0.012,32.368l-47.352,0.019l0.006,13.258l43.736-0.015l0.008,32.369
		l-43.734,0.016l0.004,13.947l48.902-0.017l0.01,32.371l-96.078,0.032L682.197,35.374z"/>
	<path fill="#FFFFFF" d="M353.441,204.739l-30.65,0.009l-0.008-33.402l110.538-0.038l0.012,33.405l-30.647,0.009l0.031,90.91
		l-49.243,0.019L353.441,204.739z"/>
	<path fill="#FFFFFF" d="M555.598,253.914c0.012,29.959-21.504,44.946-59.041,44.959s-59.064-14.959-59.076-44.921l-0.025-82.648
		l49.242-0.015l0.025,80.584c0.004,9.812,4.656,13.598,9.822,13.598c5.166-0.002,9.812-3.791,9.809-13.607l-0.027-80.581
		l49.244-0.017L555.598,253.914z"/>
	<path fill="#FFFFFF" d="M567.969,171.261l73.865-0.025c26.859-0.009,39.951,11.349,39.957,32.183
		c0.004,12.054-4.984,22.733-23.406,27.042v0.344c19.111,2.577,26.691,15.831,26.695,29.09c0.008,21.352-16.688,35.646-47.678,35.66
		l-69.393,0.021L567.969,171.261z M614.121,197.764l0.01,23.588l6.543-0.002c11.363-0.004,14.975-5.174,14.973-12.404
		c0-8.265-5.342-11.189-15.154-11.186L614.121,197.764z M614.146,269.047l6.887-0.004c12.055-0.003,16.875-3.966,16.869-13.092
		c-0.002-7.574-5.857-11.19-17.395-11.188l-6.371,0.002L614.146,269.047z"/>
	<path fill="#FFFFFF" d="M694.178,171.218l94.527-0.034l0.012,32.371l-47.352,0.016l0.006,13.261l43.734-0.017l0.01,32.371
		l-43.732,0.013l0.004,13.948l48.898-0.015l0.014,32.366l-96.078,0.035L694.178,171.218z"/>
	<g>
		<path fill="#FFFFFF" d="M95.355,109.631c5.228-22.579,16.444-42.861,31.896-59.078L97.316,29.389
			C78.127,50.88,64.519,77.455,58.762,106.848C58.762,106.848,95.285,109.943,95.355,109.631z"/>
		<path fill="#FFFFFF" d="M219.624,39.128c-46.792,0-85.911,34.323-95.602,80.207l-88.037-5.279
			c-0.711,4.672-1.245,9.403-1.6,14.182l-0.038-0.002c-0.066,0.971-0.102,1.949-0.155,2.924c-0.016,0.273-0.03,0.547-0.046,0.822
			c-0.076,1.479-0.14,2.96-0.183,4.447c-0.044,1.472-0.071,2.95-0.082,4.432c0,0.219-0.012,0.436-0.012,0.656
			c0,0.089,0.004,0.178,0.004,0.269c0,0.096-0.004,0.193-0.004,0.29c0,1.104,0.03,2.203,0.047,3.302
			c0.005,0.288,0.005,0.578,0.012,0.866c1.234,55.63,27.057,105.194,67.05,138.232c0.007-0.005,0.016-0.014,0.023-0.021
			c30.098,25.003,68.216,40.681,109.926,42.604c0,0,0.194-6.158,0.106-6.16c-40.106-1.486-76.759-16.455-105.756-40.478
			c0.598-0.566,1.221-1.151,1.872-1.767c25.334,20.803,56.537,34.721,90.748,38.898l0.363-2.963
			c-33.502-4.092-64.067-17.688-88.922-38.007c12.995-12.286,34.027-32.254,53.884-51.366
			c15.943,11.771,35.396,18.687,56.399,18.687c54.072,0,97.908-45.839,97.908-102.386C317.532,84.967,273.696,39.128,219.624,39.128
			z M219.624,191.31c-6.426,0-12.562-1.229-18.2-3.449c6.439-6.487,10.951-11.249,12.453-13.278
			c1.867,0.324,3.784,0.502,5.747,0.502c18.538,0,33.568-15.03,33.568-33.569c0-18.542-15.03-33.57-33.568-33.57
			c-11.857,0-22.269,6.149-28.24,15.43l-17.714-1.063c7.516-17.967,25.259-30.593,45.954-30.593
			c27.499,0,49.793,22.294,49.793,49.796C269.417,169.016,247.123,191.31,219.624,191.31z M195.004,141.515
			c0-13.596,11.022-24.619,24.619-24.619c13.594,0,24.616,11.023,24.616,24.619c0,13.595-11.022,24.617-24.616,24.617
			C206.027,166.132,195.004,155.11,195.004,141.515z"/>
		<path fill="#FFFFFF" d="M219.624,123.19c-10.122,0-18.324,8.205-18.324,18.325c0,10.117,8.202,18.322,18.324,18.322
			c10.119,0,18.321-8.205,18.321-18.322C237.944,131.395,229.743,123.19,219.624,123.19z M222.615,132.132
			c-0.959-0.31-1.979-0.481-3.039-0.481c-5.459,0-9.885,4.426-9.885,9.885c0,0.989,0.15,1.944,0.422,2.848l-4.107,1.234
			c-0.389-1.293-0.604-2.662-0.604-4.082c0-7.829,6.347-14.175,14.175-14.175c1.52,0,2.983,0.247,4.356,0.688L222.615,132.132z"/>
	</g>
</g>
</svg>
