<?xml version="1.0" encoding="utf-8"?>
<!-- Generator: Adobe Illustrator 19.0.0, SVG Export Plug-In . SVG Version: 6.00 Build 0)  -->
<svg version="1.1" id="Layer_1" xmlns="http://www.w3.org/2000/svg" xmlns:xlink="http://www.w3.org/1999/xlink" x="0px" y="0px"
	 viewBox="0 0 85.9 17" style="enable-background:new 0 0 85.9 17;" xml:space="preserve">
<style type="text/css">
	.st0{fill:#FFFFFF;}
</style>
<g id="XMLID_1_">
	<path id="XMLID_88_" class="st0" d="M83.8,16.5H1.6c-0.9,0-1.6-0.7-1.6-1.6L0,2.1c0-0.9,0.7-1.6,1.6-1.6h82.2
		c0.9,0,1.6,0.7,1.6,1.6v12.8C85.4,15.8,84.6,16.5,83.8,16.5z"/>
	<path id="XMLID_89_" d="M83.8,17H1.6c-1.1,0-2.1-0.9-2.1-2.1V2.1C-0.5,0.9,0.4,0,1.6,0h82.2c1.1,0,2.1,0.9,2.1,2.1v12.8
		C85.9,16.1,84.9,17,83.8,17z M1.6,1C1,1,0.5,1.5,0.5,2.1v12.8C0.5,15.5,1,16,1.6,16h82.2c0.6,0,1.1-0.5,1.1-1.1V2.1
		c0-0.6-0.5-1.1-1.1-1.1H1.6z"/>
</g>
<g id="XMLID_3_">
	<path id="XMLID_4_" d="M12.7,11.4H8.3L7.4,14H5.6L9.6,3h1.7l4,11.1h-1.9L12.7,11.4z M8.9,9.9h3.3l-1.6-4.7h0L8.9,9.9z"/>
	<path id="XMLID_7_" d="M16.7,14V3h3.6c1.4,0,2.5,0.4,3.4,1.3s1.3,2,1.3,3.4v1.7c0,1.4-0.4,2.5-1.3,3.4c-0.9,0.9-2,1.3-3.4,1.3H16.7
		z M18.5,4.4v8.1h1.7c0.9,0,1.6-0.3,2.2-0.9c0.5-0.6,0.8-1.4,0.8-2.3V7.6c0-0.9-0.3-1.7-0.8-2.3c-0.5-0.6-1.2-0.9-2.2-0.9H18.5z"/>
	<path id="XMLID_10_" d="M30.3,11.1l0.2,0.8h0l0.2-0.8L33.3,3h2l-4,11.1h-1.8L25.7,3h2L30.3,11.1z"/>
	<path id="XMLID_12_" d="M38.6,14h-1.8V3h1.8V14z"/>
	<path id="XMLID_14_" d="M47.1,11.2c0-0.5-0.2-0.8-0.5-1.1c-0.3-0.3-0.9-0.6-1.8-0.8c-1.2-0.3-2.2-0.8-2.9-1.3s-1-1.2-1-2.1
		c0-0.9,0.4-1.6,1.1-2.2s1.7-0.9,2.9-0.9c1.2,0,2.2,0.3,2.9,1s1.1,1.4,1.1,2.4l0,0h-1.8c0-0.6-0.2-1-0.6-1.4
		c-0.4-0.4-0.9-0.5-1.6-0.5c-0.7,0-1.2,0.1-1.6,0.4C43,5,42.8,5.4,42.8,5.9c0,0.4,0.2,0.8,0.6,1c0.4,0.3,1,0.5,1.9,0.8
		C46.5,8,47.4,8.5,48,9s0.9,1.3,0.9,2.2c0,0.9-0.4,1.7-1.1,2.2s-1.7,0.8-2.9,0.8c-1.2,0-2.2-0.3-3-0.9c-0.9-0.6-1.3-1.5-1.3-2.5l0,0
		h1.8c0,0.7,0.2,1.2,0.7,1.5c0.5,0.3,1.1,0.5,1.8,0.5c0.7,0,1.2-0.1,1.6-0.4C46.9,12,47.1,11.7,47.1,11.2z"/>
	<path id="XMLID_16_" d="M59.5,9.5c0,1.4-0.4,2.5-1.3,3.4c-0.8,0.9-1.9,1.3-3.3,1.3c-1.3,0-2.4-0.4-3.2-1.3c-0.8-0.9-1.2-2-1.2-3.4
		v-2c0-1.3,0.4-2.5,1.2-3.4c0.8-0.9,1.9-1.3,3.2-1.3c1.4,0,2.5,0.4,3.3,1.3c0.9,0.9,1.3,2,1.3,3.4V9.5z M57.7,7.5
		c0-0.9-0.2-1.7-0.7-2.3s-1.2-0.9-2-0.9c-0.8,0-1.5,0.3-1.9,0.9s-0.7,1.4-0.7,2.3v2c0,0.9,0.2,1.7,0.7,2.3c0.5,0.6,1.1,0.9,1.9,0.9
		c0.8,0,1.5-0.3,2-0.9c0.5-0.6,0.7-1.4,0.7-2.3V7.5z"/>
	<path id="XMLID_19_" d="M63.4,9.4V14h-1.8V3h4.1c1.2,0,2.2,0.3,2.9,0.8c0.7,0.6,1,1.4,1,2.4c0,0.6-0.1,1.1-0.4,1.5
		c-0.3,0.4-0.7,0.7-1.3,1c0.6,0.2,1.1,0.5,1.3,1s0.4,1,0.4,1.7v0.9c0,0.3,0,0.6,0.1,1c0.1,0.3,0.2,0.5,0.4,0.7V14h-1.9
		c-0.2-0.2-0.3-0.4-0.4-0.8c-0.1-0.4-0.1-0.7-0.1-1.1v-0.9c0-0.6-0.2-1-0.5-1.4s-0.8-0.5-1.3-0.5H63.4z M63.4,8h2.1
		c0.7,0,1.3-0.1,1.6-0.4c0.3-0.3,0.5-0.7,0.5-1.3c0-0.6-0.2-1-0.5-1.3c-0.3-0.3-0.8-0.5-1.5-0.5h-2.2V8z"/>
	<path id="XMLID_22_" d="M75.1,8.3L77.7,3h2.1l-3.8,7.2V14h-1.8v-4L70.3,3h2.1L75.1,8.3z"/>
</g>
</svg>
